<svg width="64" height="64" viewBox="0 0 64 64" fill="none" xmlns="http://www.w3.org/2000/svg">
<rect width="64" height="64" rx="32" fill="#004A51"/>
<path d="M35.6667 30.1667C35.6667 31.175 34.8417 32 33.8333 32H17.3333C16.325 32 15.5 31.175 15.5 30.1667C15.5 29.1583 16.325 28.3333 17.3333 28.3333H33.8333C34.8417 28.3333 35.6667 29.1583 35.6667 30.1667ZM15.5 22.8333C15.5 23.8417 16.325 24.6667 17.3333 24.6667H33.8333C34.8417 24.6667 35.6667 23.8417 35.6667 22.8333C35.6667 21.825 34.8417 21 33.8333 21H17.3333C16.325 21 15.5 21.825 15.5 22.8333ZM28.3333 37.5C28.3333 36.4917 27.5083 35.6667 26.5 35.6667H17.3333C16.325 35.6667 15.5 36.4917 15.5 37.5C15.5 38.5083 16.325 39.3333 17.3333 39.3333H26.5C27.5083 39.3333 28.3333 38.5083 28.3333 37.5ZM43.0183 33.595L44.32 32.2933C44.4896 32.1234 44.6911 31.9885 44.9129 31.8965C45.1346 31.8045 45.3724 31.7572 45.6125 31.7572C45.8526 31.7572 46.0904 31.8045 46.3121 31.8965C46.5339 31.9885 46.7354 32.1234 46.905 32.2933L48.2067 33.595C48.9217 34.31 48.9217 35.465 48.2067 36.18L46.905 37.4817L43.0183 33.595ZM41.7167 34.8967L32.2567 44.3567C32.0917 44.5217 32 44.7417 32 44.9983V47.5833C32 48.0967 32.4033 48.5 32.9167 48.5H35.5017C35.74 48.5 35.9783 48.4083 36.1433 48.225L45.6033 38.765L41.7167 34.8967Z" fill="#F4F4F4"/>
</svg>
