<svg width="45" height="45" viewBox="0 0 45 45" fill="none" xmlns="http://www.w3.org/2000/svg">
<rect x="0.5" y="0.5" width="44" height="44" rx="22" fill="#004A51"/>
<path d="M15.5 19.5V31.5H11.5V19.5H15.5ZM19.5 31.5C18.9696 31.5 18.4609 31.2893 18.0858 30.9142C17.7107 30.5391 17.5 30.0304 17.5 29.5V19.5C17.5 18.95 17.72 18.45 18.09 18.09L24.67 11.5L25.73 12.56C26 12.83 26.17 13.2 26.17 13.61L26.14 13.93L25.19 18.5H31.5C32.0304 18.5 32.5391 18.7107 32.9142 19.0858C33.2893 19.4609 33.5 19.9696 33.5 20.5V22.5C33.5 22.76 33.45 23 33.36 23.23L30.34 30.28C30.04 31 29.33 31.5 28.5 31.5H19.5ZM19.5 29.5H28.53L31.5 22.5V20.5H22.71L23.84 15.18L19.5 19.53V29.5Z" fill="#F4F4F4"/>
</svg>
