<svg width="64" height="64" viewBox="0 0 64 64" fill="none" xmlns="http://www.w3.org/2000/svg">
<rect width="64" height="64" rx="32" fill="#004A51"/>
<path d="M49.8017 25.9684C52.0934 23.6767 51.0484 21.0001 49.8017 19.6984L44.3017 14.1984C41.9917 11.9067 39.3334 12.9517 38.0317 14.1984L34.9151 17.3334H30.1667C26.6834 17.3334 24.6667 19.1667 23.6401 21.2751L15.5001 29.4151V36.7484L14.1984 38.0317C11.9067 40.3417 12.9517 43.0001 14.1984 44.3017L19.6984 49.8017C20.6884 50.7917 21.7517 51.1584 22.7601 51.1584C24.0617 51.1584 25.2534 50.5167 25.9684 49.8017L30.9184 44.8334H37.5001C40.6167 44.8334 42.1934 42.8901 42.7617 40.9834C44.8334 40.4334 45.9701 38.8567 46.4284 37.3167C49.2701 36.5834 50.3334 33.8884 50.3334 32.0001V26.5001H49.2517L49.8017 25.9684ZM46.6667 32.0001C46.6667 32.8251 46.3184 33.8334 44.8334 33.8334H43.0001V35.6667C43.0001 36.4917 42.6517 37.5001 41.1667 37.5001H39.3334V39.3334C39.3334 40.1584 38.9851 41.1667 37.5001 41.1667H29.4151L23.4017 47.1801C22.8334 47.7117 22.5034 47.4001 22.3017 47.1984L16.8201 41.7351C16.2884 41.1667 16.6001 40.8367 16.8017 40.6351L19.1667 38.2517V30.9184L22.8334 27.2517V30.1667C22.8334 32.3851 24.3001 35.6667 28.3334 35.6667C32.3667 35.6667 33.8334 32.3851 33.8334 30.1667H46.6667V32.0001ZM47.1984 23.3651L44.0817 26.5001H30.1667V30.1667C30.1667 30.9917 29.8184 32.0001 28.3334 32.0001C26.8484 32.0001 26.5001 30.9917 26.5001 30.1667V24.6667C26.5001 23.8234 26.8117 21.0001 30.1667 21.0001H36.4184L40.5984 16.8201C41.1667 16.2884 41.4967 16.6001 41.6984 16.8017L47.1801 22.2651C47.7117 22.8334 47.4001 23.1634 47.1984 23.3651Z" fill="#F4F4F4"/>
</svg>
