<svg width="45" height="45" viewBox="0 0 45 45" fill="none" xmlns="http://www.w3.org/2000/svg">
<rect x="0.5" y="0.5" width="44" height="44" rx="22" fill="#004A51"/>
<g clip-path="url(#clip0_35_753)">
<path d="M29.5 13.5C30.0304 13.5 30.5391 13.7107 30.9142 14.0858C31.2893 14.4609 31.5 14.9696 31.5 15.5V29.5C31.5 30.0304 31.2893 30.5391 30.9142 30.9142C30.5391 31.2893 30.0304 31.5 29.5 31.5H15.5C14.9696 31.5 14.4609 31.2893 14.0858 30.9142C13.7107 30.5391 13.5 30.0304 13.5 29.5V15.5C13.5 14.9696 13.7107 14.4609 14.0858 14.0858C14.4609 13.7107 14.9696 13.5 15.5 13.5H29.5ZM29.5 15.5H15.5V29.5H29.5V15.5ZM22.537 18.229C22.808 17.361 23.977 17.279 24.387 18.045L24.439 18.155L26.177 22.5H27.5C27.7549 22.5003 28 22.5979 28.1854 22.7728C28.3707 22.9478 28.4822 23.187 28.4972 23.4414C28.5121 23.6958 28.4293 23.9464 28.2657 24.1418C28.1021 24.3373 27.8701 24.4629 27.617 24.493L27.5 24.5H25.507C25.3259 24.5001 25.1481 24.4515 24.9922 24.3593C24.8364 24.2672 24.7081 24.1348 24.621 23.976L24.569 23.866L23.616 21.482L21.962 26.775C21.703 27.603 20.607 27.728 20.155 27.03L20.095 26.925L18.881 24.5H17.5C17.2451 24.4997 17 24.4021 16.8146 24.2272C16.6293 24.0522 16.5178 23.813 16.5028 23.5586C16.4879 23.3042 16.5707 23.0536 16.7343 22.8582C16.8979 22.6627 17.1299 22.5371 17.383 22.507L17.5 22.5H19.494C19.834 22.5 20.148 22.67 20.334 22.949L20.397 23.059L20.785 23.835L22.537 18.229Z" fill="#F4F4F4"/>
</g>
<defs>
<clipPath id="clip0_35_753">
<rect width="24" height="24" fill="white" transform="translate(10.5 10.5)"/>
</clipPath>
</defs>
</svg>
