<svg width="64" height="64" viewBox="0 0 64 64" fill="none" xmlns="http://www.w3.org/2000/svg">
<rect width="64" height="64" rx="32" fill="#004A51"/>
<path d="M31.9964 13.663C34.2038 13.663 36.3194 14.0535 38.2793 14.7666L36.0884 16.9556C32.7729 16.0541 29.2523 16.2733 26.0742 17.5792C22.8961 18.8852 20.2386 21.2046 18.5149 24.1769C16.7912 27.1492 16.0979 30.6077 16.5428 34.0148C16.9877 37.4218 18.5458 40.5863 20.975 43.0163C23.4042 45.4463 26.5682 47.0056 29.9751 47.4516C33.382 47.8976 36.8407 47.2055 39.8136 45.4827C42.7865 43.76 45.1068 41.1033 46.4138 37.9256C47.7208 34.748 47.9412 31.2275 47.0408 27.9116L49.2298 25.7226C49.9619 27.7344 50.3355 29.8591 50.3334 32C50.3334 42.1273 42.1238 50.337 31.9964 50.337C21.8691 50.337 13.6594 42.1273 13.6594 32C13.6594 21.8726 21.8691 13.663 31.9964 13.663ZM31.9964 21C32.9253 20.9995 33.8506 21.1166 34.7501 21.3483V24.2211C32.986 23.597 31.0621 23.5912 29.2942 24.2046C27.5263 24.818 26.0194 26.0142 25.021 27.5968C24.0225 29.1795 23.5918 31.0545 23.7994 32.9143C24.0071 34.774 24.8408 36.5079 26.1638 37.8313C27.4867 39.1547 29.2203 39.9891 31.08 40.1974C32.9396 40.4058 34.8148 39.9757 36.3979 38.9778C37.9809 37.98 39.1776 36.4736 39.7917 34.7059C40.4057 32.9382 40.4006 31.0143 39.7771 29.25H42.6499C43.2235 31.4712 43.0881 33.8163 42.2629 35.9568C41.4377 38.0974 39.9638 39.9264 38.0476 41.1878C36.1314 42.4493 33.8688 43.08 31.5763 42.9918C29.2839 42.9036 27.0764 42.1009 25.2628 40.696C23.4492 39.291 22.1202 37.3542 21.4619 35.1566C20.8035 32.9589 20.8488 30.6104 21.5913 28.4398C22.3338 26.2691 23.7364 24.3849 25.6028 23.0509C27.4692 21.7169 29.706 20.9998 32.0001 21H31.9964ZM35.6631 32C35.6628 32.788 35.4087 33.5551 34.9383 34.1874C34.4679 34.8197 33.8063 35.2836 33.0516 35.5104C32.2968 35.7371 31.4891 35.7147 30.7481 35.4464C30.0071 35.1781 29.3723 34.6782 28.9377 34.0208C28.5031 33.3634 28.2919 32.5834 28.3353 31.7965C28.3788 31.0097 28.6746 30.2577 29.179 29.6522C29.6833 29.0466 30.3694 28.6197 31.1354 28.4346C31.9015 28.2496 32.7068 28.3163 33.4319 28.6248L36.5853 25.4715L36.5834 19.625C36.5837 19.2604 36.7288 18.9109 36.9868 18.6533L41.5701 14.07C41.7624 13.8779 42.0073 13.7471 42.2738 13.6942C42.5404 13.6412 42.8167 13.6685 43.0678 13.7724C43.3189 13.8764 43.5335 14.0525 43.6846 14.2784C43.8357 14.5042 43.9165 14.7699 43.9168 15.0416V20.0833H48.9584C49.2302 20.0835 49.4958 20.1643 49.7217 20.3154C49.9476 20.4665 50.1236 20.6812 50.2276 20.9323C50.3316 21.1834 50.3588 21.4596 50.3059 21.7262C50.2529 21.9928 50.1221 22.2377 49.9301 22.43L45.3468 27.0133C45.0891 27.2712 44.7396 27.4163 44.3751 27.4166H38.5268L35.3734 30.57C35.5604 31.01 35.6631 31.4921 35.6631 32ZM43.8049 24.6666L45.6383 22.8333H42.5399C42.1753 22.8333 41.8255 22.6884 41.5677 22.4306C41.3098 22.1727 41.1649 21.823 41.1649 21.4583V18.36L39.3334 20.1933V24.5585C39.3716 24.5929 39.4078 24.6297 39.4416 24.6685H43.8049V24.6666Z" fill="#F4F4F4"/>
</svg>
