<svg width="45" height="45" viewBox="0 0 45 45" fill="none" xmlns="http://www.w3.org/2000/svg">
<rect x="0.5" y="0.5" width="44" height="44" rx="22" fill="#004A51"/>
<path d="M22.4981 12.498C23.7021 12.498 24.8561 12.711 25.9251 13.1L24.7301 14.294C22.9216 13.8022 21.0013 13.9218 19.2678 14.6341C17.5343 15.3465 16.0847 16.6116 15.1445 18.2329C14.2043 19.8541 13.8261 21.7406 14.0688 23.599C14.3115 25.4573 15.1614 27.1835 16.4864 28.5089C17.8114 29.8344 19.5373 30.6849 21.3955 30.9281C23.2538 31.1714 25.1404 30.7939 26.762 29.8542C28.3836 28.9146 29.6492 27.4654 30.3621 25.7322C31.075 23.9989 31.1952 22.0786 30.7041 20.27L31.8981 19.076C32.2975 20.1733 32.5012 21.3322 32.5001 22.5C32.5001 28.024 28.0221 32.502 22.4981 32.502C16.9741 32.502 12.4961 28.024 12.4961 22.5C12.4961 16.976 16.9741 12.498 22.4981 12.498ZM22.4981 16.5C23.0048 16.4998 23.5094 16.5636 24.0001 16.69V18.257C23.0378 17.9166 21.9884 17.9134 21.0241 18.2479C20.0598 18.5825 19.2379 19.235 18.6933 20.0983C18.1487 20.9615 17.9137 21.9843 18.027 22.9987C18.1403 24.0131 18.595 24.9588 19.3167 25.6807C20.0383 26.4026 20.9839 26.8577 21.9982 26.9713C23.0126 27.085 24.0354 26.8504 24.8989 26.3061C25.7623 25.7618 26.4151 24.9401 26.75 23.976C27.085 23.0118 27.0822 21.9624 26.7421 21H28.3091C28.6219 22.2116 28.5481 23.4907 28.098 24.6583C27.6479 25.8259 26.8439 26.8235 25.7987 27.5115C24.7535 28.1996 23.5194 28.5437 22.269 28.4955C21.0185 28.4474 19.8144 28.0096 18.8252 27.2433C17.836 26.4769 17.1111 25.4205 16.752 24.2218C16.3929 23.023 16.4176 21.7421 16.8226 20.5581C17.2276 19.3741 17.9926 18.3463 19.0107 17.6187C20.0287 16.891 21.2487 16.4999 22.5001 16.5H22.4981ZM24.4981 22.5C24.498 22.9298 24.3593 23.3482 24.1027 23.6931C23.8462 24.038 23.4853 24.291 23.0736 24.4147C22.6619 24.5384 22.2214 24.5262 21.8172 24.3799C21.413 24.2335 21.0667 23.9608 20.8297 23.6023C20.5926 23.2437 20.4774 22.8182 20.5011 22.389C20.5248 21.9598 20.6862 21.5497 20.9613 21.2194C21.2364 20.8891 21.6106 20.6562 22.0285 20.5553C22.4463 20.4543 22.8855 20.4907 23.2811 20.659L25.0011 18.939L25.0001 15.75C25.0003 15.5511 25.0794 15.3605 25.2201 15.22L27.7201 12.72C27.825 12.6152 27.9586 12.5439 28.104 12.515C28.2494 12.4861 28.4001 12.501 28.537 12.5577C28.674 12.6144 28.7911 12.7104 28.8735 12.8337C28.9559 12.9569 29 13.1017 29.0001 13.25V16H31.7501C31.8983 16.0001 32.0432 16.0442 32.1664 16.1266C32.2896 16.209 32.3857 16.3261 32.4424 16.4631C32.4991 16.6 32.5139 16.7507 32.4851 16.8961C32.4562 17.0415 32.3849 17.1751 32.2801 17.28L29.7801 19.78C29.6396 19.9207 29.4489 19.9998 29.2501 20H26.0601L24.3401 21.72C24.4421 21.96 24.4981 22.223 24.4981 22.5ZM28.9391 18.5L29.9391 17.5H28.2491C28.0502 17.5 27.8594 17.421 27.7188 17.2803C27.5781 17.1397 27.4991 16.9489 27.4991 16.75V15.06L26.5001 16.06V18.441C26.5209 18.4598 26.5406 18.4798 26.5591 18.501H28.9391V18.5Z" fill="#F4F4F4"/>
</svg>
