<svg width="24" height="25" viewBox="0 0 24 25" fill="none" xmlns="http://www.w3.org/2000/svg">
<path d="M20 4.35181H4C2.9 4.35181 2.01 5.25181 2.01 6.35181L2 18.3518C2 19.4518 2.9 20.3518 4 20.3518H20C21.1 20.3518 22 19.4518 22 18.3518V6.35181C22 5.25181 21.1 4.35181 20 4.35181ZM19.6 8.60181L12.53 13.0218C12.21 13.2218 11.79 13.2218 11.47 13.0218L4.4 8.60181C4.29973 8.54552 4.21192 8.46947 4.14189 8.37826C4.07186 8.28705 4.02106 8.18258 3.99258 8.07118C3.96409 7.95977 3.9585 7.84374 3.97616 7.73011C3.99381 7.61649 4.03434 7.50762 4.09528 7.41011C4.15623 7.3126 4.23632 7.22846 4.33073 7.1628C4.42513 7.09714 4.53187 7.05132 4.6445 7.02811C4.75712 7.00489 4.87328 7.00477 4.98595 7.02775C5.09863 7.05074 5.20546 7.09634 5.3 7.16181L12 11.3518L18.7 7.16181C18.7945 7.09634 18.9014 7.05074 19.014 7.02775C19.1267 7.00477 19.2429 7.00489 19.3555 7.02811C19.4681 7.05132 19.5749 7.09714 19.6693 7.1628C19.7637 7.22846 19.8438 7.3126 19.9047 7.41011C19.9657 7.50762 20.0062 7.61649 20.0238 7.73011C20.0415 7.84374 20.0359 7.95977 20.0074 8.07118C19.9789 8.18258 19.9281 8.28705 19.8581 8.37826C19.7881 8.46947 19.7003 8.54552 19.6 8.60181Z" fill="#005D65"/>
</svg>
