<svg width="24" height="25" viewBox="0 0 24 25" fill="none" xmlns="http://www.w3.org/2000/svg">
<path d="M12 2.39185C6.5 2.39185 2 6.88185 2 12.4118C2 17.4118 5.66 21.5618 10.44 22.3118V15.3118H7.9V12.4118H10.44V10.2018C10.44 7.69185 11.93 6.31185 14.22 6.31185C15.31 6.31185 16.45 6.50185 16.45 6.50185V8.97185H15.19C13.95 8.97185 13.56 9.74185 13.56 10.5318V12.4118H16.34L15.89 15.3118H13.56V22.3118C15.9164 21.9397 18.0622 20.7374 19.6099 18.9219C21.1576 17.1065 22.0054 14.7975 22 12.4118C22 6.88185 17.5 2.39185 12 2.39185Z" fill="#005D65"/>
</svg>
