<svg width="24" height="25" viewBox="0 0 24 25" fill="none" xmlns="http://www.w3.org/2000/svg">
<path d="M19 3.35181C19.5304 3.35181 20.0391 3.56252 20.4142 3.93759C20.7893 4.31267 21 4.82137 21 5.35181V19.3518C21 19.8822 20.7893 20.3909 20.4142 20.766C20.0391 21.1411 19.5304 21.3518 19 21.3518H5C4.46957 21.3518 3.96086 21.1411 3.58579 20.766C3.21071 20.3909 3 19.8822 3 19.3518V5.35181C3 4.82137 3.21071 4.31267 3.58579 3.93759C3.96086 3.56252 4.46957 3.35181 5 3.35181H19ZM18.5 18.8518V13.5518C18.5 12.6872 18.1565 11.858 17.5452 11.2466C16.9338 10.6353 16.1046 10.2918 15.24 10.2918C14.39 10.2918 13.4 10.8118 12.92 11.5918V10.4818H10.13V18.8518H12.92V13.9218C12.92 13.1518 13.54 12.5218 14.31 12.5218C14.6813 12.5218 15.0374 12.6693 15.2999 12.9319C15.5625 13.1944 15.71 13.5505 15.71 13.9218V18.8518H18.5ZM6.88 8.91181C7.32556 8.91181 7.75288 8.73481 8.06794 8.41975C8.383 8.10469 8.56 7.67737 8.56 7.23181C8.56 6.30181 7.81 5.54181 6.88 5.54181C6.43178 5.54181 6.00193 5.71986 5.68499 6.0368C5.36805 6.35373 5.19 6.78359 5.19 7.23181C5.19 8.16181 5.95 8.91181 6.88 8.91181ZM8.27 18.8518V10.4818H5.5V18.8518H8.27Z" fill="#005D65"/>
</svg>
