<svg width="24" height="25" viewBox="0 0 24 25" fill="none" xmlns="http://www.w3.org/2000/svg">
<path d="M12 2.35181C6.48 2.35181 2 6.83181 2 12.3518C2 17.8718 6.48 22.3518 12 22.3518C17.52 22.3518 22 17.8718 22 12.3518C22 6.83181 17.52 2.35181 12 2.35181ZM16.64 9.15181C16.49 10.7318 15.84 14.5718 15.51 16.3418C15.37 17.0918 15.09 17.3418 14.83 17.3718C14.25 17.4218 13.81 16.9918 13.25 16.6218C12.37 16.0418 11.87 15.6818 11.02 15.1218C10.03 14.4718 10.67 14.1118 11.24 13.5318C11.39 13.3818 13.95 11.0518 14 10.8418C14.0069 10.81 14.006 10.777 13.9973 10.7456C13.9886 10.7142 13.9724 10.6855 13.95 10.6618C13.89 10.6118 13.81 10.6318 13.74 10.6418C13.65 10.6618 12.25 11.5918 9.52 13.4318C9.12 13.7018 8.76 13.8418 8.44 13.8318C8.08 13.8218 7.4 13.6318 6.89 13.4618C6.26 13.2618 5.77 13.1518 5.81 12.8018C5.83 12.6218 6.08 12.4418 6.55 12.2518C9.47 10.9818 11.41 10.1418 12.38 9.74181C15.16 8.58181 15.73 8.38181 16.11 8.38181C16.19 8.38181 16.38 8.40181 16.5 8.50181C16.6 8.58181 16.63 8.69181 16.64 8.77181C16.63 8.83181 16.65 9.01181 16.64 9.15181Z" fill="#005D65"/>
</svg>
