<svg width="24" height="25" viewBox="0 0 24 25" fill="none" xmlns="http://www.w3.org/2000/svg">
<path d="M22.46 6.35181C21.69 6.70181 20.86 6.93181 20 7.04181C20.88 6.51181 21.56 5.67181 21.88 4.66181C21.05 5.16181 20.13 5.51181 19.16 5.71181C18.37 4.85181 17.26 4.35181 16 4.35181C13.65 4.35181 11.73 6.27181 11.73 8.64181C11.73 8.98181 11.77 9.31181 11.84 9.62181C8.28 9.44181 5.11 7.73181 3 5.14181C2.63 5.77181 2.42 6.51181 2.42 7.29181C2.42 8.78181 3.17 10.1018 4.33 10.8518C3.62 10.8518 2.96 10.6518 2.38 10.3518V10.3818C2.38 12.4618 3.86 14.2018 5.82 14.5918C5.19073 14.764 4.5301 14.788 3.89 14.6618C4.16161 15.5143 4.69354 16.2602 5.41102 16.7947C6.1285 17.3293 6.99545 17.6255 7.89 17.6418C6.37363 18.8422 4.494 19.4911 2.56 19.4818C2.22 19.4818 1.88 19.4618 1.54 19.4218C3.44 20.6418 5.7 21.3518 8.12 21.3518C16 21.3518 20.33 14.8118 20.33 9.14181C20.33 8.95181 20.33 8.77181 20.32 8.58181C21.16 7.98181 21.88 7.22181 22.46 6.35181Z" fill="#005D65"/>
</svg>
