<svg width="24" height="25" viewBox="0 0 24 25" fill="none" xmlns="http://www.w3.org/2000/svg">
<path d="M12.04 2.35187C6.58 2.35187 2.13 6.80187 2.13 12.2619C2.13 14.0119 2.59 15.7119 3.45 17.2119L2.05 22.3519L7.3 20.9719C8.75 21.7619 10.38 22.1819 12.04 22.1819C17.5 22.1819 21.95 17.7319 21.95 12.2719C21.95 9.62187 20.92 7.13187 19.05 5.26187C18.1332 4.33579 17.0412 3.60153 15.8376 3.10192C14.6341 2.6023 13.3431 2.34733 12.04 2.35187ZM12.05 4.02187C14.25 4.02187 16.31 4.88187 17.87 6.44187C18.6356 7.20722 19.2426 8.11618 19.6562 9.11663C20.0697 10.1171 20.2817 11.1893 20.28 12.2719C20.28 16.8119 16.58 20.5019 12.04 20.5019C10.56 20.5019 9.11 20.1119 7.85 19.3519L7.55 19.1819L4.43 20.0019L5.26 16.9619L5.06 16.6419C4.23394 15.3305 3.79702 13.8117 3.8 12.2619C3.81 7.72187 7.5 4.02187 12.05 4.02187ZM8.53 7.68187C8.37 7.68187 8.1 7.74187 7.87 7.99187C7.65 8.24187 7 8.85187 7 10.0619C7 11.2819 7.89 12.4519 8 12.6219C8.14 12.7919 9.76 15.2919 12.25 16.3519C12.84 16.6219 13.3 16.7719 13.66 16.8819C14.25 17.0719 14.79 17.0419 15.22 16.9819C15.7 16.9119 16.68 16.3819 16.89 15.8019C17.1 15.2219 17.1 14.7319 17.04 14.6219C16.97 14.5219 16.81 14.4619 16.56 14.3519C16.31 14.2119 15.09 13.6119 14.87 13.5319C14.64 13.4519 14.5 13.4119 14.31 13.6519C14.15 13.9019 13.67 14.4619 13.53 14.6219C13.38 14.7919 13.24 14.8119 13 14.6919C12.74 14.5619 11.94 14.3019 11 13.4619C10.26 12.8019 9.77 11.9919 9.62 11.7419C9.5 11.5019 9.61 11.3519 9.73 11.2419C9.84 11.1319 10 10.9519 10.1 10.8019C10.23 10.6619 10.27 10.5519 10.35 10.3919C10.43 10.2219 10.39 10.0819 10.33 9.96187C10.27 9.85187 9.77 8.61187 9.56 8.12187C9.36 7.64187 9.16 7.70187 9 7.69187C8.86 7.69187 8.7 7.68187 8.53 7.68187Z" fill="#005D65"/>
</svg>
