<svg width="92" height="89" viewBox="0 0 92 89" fill="none" xmlns="http://www.w3.org/2000/svg">
<rect width="92" height="89" rx="10" fill="#7AC7FF"/>
<path d="M27.0663 66.0019L22.855 18.75H69.145L64.9281 65.9944L45.9719 71.25L27.0663 66.0019Z" fill="#1572B6"/>
<path d="M46 67.2338L61.3188 62.9869L64.9225 22.6144H46V67.2338Z" fill="#33A9DC"/>
<path d="M46 39.7332H53.6688L54.1975 33.7988H46V28.0032H60.5313L60.3925 29.5575L58.9694 45.5288H46V39.7332Z" fill="white"/>
<path d="M46.0356 54.7838L46.0094 54.7913L39.5556 53.0475L39.1431 48.4257H33.325L34.1369 57.525L46.0075 60.8213L46.0356 60.8138V54.7838Z" fill="#EBEBEB"/>
<path d="M53.1756 45.2831L52.4781 53.0437L46.015 54.7875V60.8175L57.895 57.525L57.9831 56.5462L58.99 45.2831H53.1756Z" fill="white"/>
<path d="M46.0206 28.0032V33.7988H32.0219L31.9056 32.4957L31.6413 29.5575L31.5025 28.0032H46.0206ZM46 39.7332V45.5288H39.6269L39.5106 44.2257L39.2481 41.2876L39.1094 39.7332H46Z" fill="#EBEBEB"/>
</svg>
