<svg width="92" height="89" viewBox="0 0 92 89" fill="none" xmlns="http://www.w3.org/2000/svg">
<rect width="92" height="89" rx="10" fill="#FFAD96"/>
<path d="M27.0662 65.8998L22.8531 18.6479H69.1469L64.9281 65.8923L45.9719 71.1479L27.0662 65.8998Z" fill="#E44F26"/>
<path d="M46 67.1317L61.3188 62.8848L64.9225 22.5123H46V67.1317Z" fill="#F1662A"/>
<path d="M46 40.036H38.3312L37.8025 34.1017H46V28.306H31.4688L31.6075 29.8623L33.0306 45.8317H46V40.036ZM46 55.0867L45.9737 55.0942L39.52 53.3523L39.1075 48.7304H33.2894L34.1013 57.8279L45.9737 61.1242L46 61.1167V55.0867Z" fill="#EBEBEB"/>
<path d="M45.9794 40.036V45.8317H53.1156L52.4444 53.3485L45.9794 55.0923V61.1223L57.8612 57.8279L57.9475 56.8492L59.3087 41.5923L59.4512 40.036H45.9794ZM45.9794 28.306V34.1017H59.9781L60.0944 32.8004L60.3587 29.8623L60.4975 28.306H45.9794Z" fill="white"/>
</svg>
