<svg width="92" height="89" viewBox="0 0 92 89" fill="none" xmlns="http://www.w3.org/2000/svg">
<rect width="92" height="89" rx="10" fill="#292929"/>
<path d="M70.3937 24.2967L59.5825 19.0917C58.972 18.7973 58.285 18.7002 57.6167 18.8137C56.9485 18.9273 56.3321 19.2459 55.8531 19.7255L20.4625 51.9905C20.0331 52.3801 19.7761 52.9243 19.7479 53.5035C19.7198 54.0826 19.9229 54.6492 20.3125 55.0786C20.3594 55.1292 20.4062 55.178 20.4569 55.223L23.3462 57.848C23.7238 58.1916 24.2098 58.3921 24.7198 58.4147C25.2298 58.4373 25.7316 58.2806 26.1381 57.9717L68.7662 25.6467C69.0882 25.4024 69.472 25.2528 69.8744 25.2147C70.2768 25.1767 70.6818 25.2517 71.0439 25.4314C71.406 25.6111 71.7107 25.8882 71.9238 26.2317C72.1368 26.5752 72.2498 26.9713 72.25 27.3755V27.2498C72.25 26.6328 72.0757 26.0283 71.7473 25.5058C71.419 24.9834 70.9498 24.5643 70.3937 24.2967Z" fill="#0065A9"/>
<path d="M70.3937 65.4343L59.5825 70.6411C58.9718 70.9347 58.285 71.0314 57.6169 70.9179C56.9489 70.8043 56.3326 70.4862 55.8531 70.0074L20.4625 37.7405C20.0331 37.3509 19.7761 36.8066 19.7479 36.2275C19.7198 35.6484 19.9229 35.0818 20.3125 34.6524C20.3594 34.6018 20.4062 34.553 20.4569 34.508L23.3462 31.883C23.7242 31.5379 24.2113 31.3365 24.7226 31.3139C25.2338 31.2913 25.7368 31.4489 26.1437 31.7593L68.7662 64.0843C69.0882 64.3286 69.472 64.4782 69.8744 64.5162C70.2768 64.5543 70.6818 64.4792 71.0439 64.2996C71.406 64.1199 71.7107 63.8427 71.9238 63.4993C72.1368 63.1558 72.2498 62.7597 72.25 62.3555V62.4905C72.248 63.1059 72.0728 63.7084 71.7446 64.2289C71.4163 64.7495 70.9482 65.1672 70.3937 65.4343Z" fill="#007ACC"/>
<path d="M59.5825 70.6411C58.9718 70.9346 58.285 71.0313 57.6169 70.9178C56.9489 70.8043 56.3326 70.4861 55.8531 70.0073C56.1224 70.2731 56.4641 70.4534 56.8354 70.5258C57.2067 70.5982 57.5911 70.5594 57.9405 70.4143C58.2899 70.2691 58.5886 70.0241 58.7993 69.7099C59.01 69.3957 59.1233 69.0263 59.125 68.648V21.083C59.1253 20.7029 59.0128 20.3312 58.8017 20.0152C58.5907 19.6991 58.2905 19.4527 57.9393 19.3074C57.5882 19.162 57.2017 19.1241 56.829 19.1985C56.4563 19.273 56.114 19.4564 55.8456 19.7255C56.3247 19.2461 56.9409 18.9274 57.609 18.8136C58.2772 18.6997 58.9641 18.7962 59.575 19.0898L70.3844 24.2873C70.9421 24.5536 71.4133 24.9721 71.7434 25.4946C72.0735 26.0172 72.2491 26.6224 72.25 27.2405V62.4905C72.2501 63.108 72.0758 63.7131 71.747 64.2359C71.4183 64.7587 70.9485 65.178 70.3919 65.4455L59.5825 70.6411Z" fill="#1F9CF0"/>
</svg>
