<svg width="742" height="608" viewBox="0 0 742 608" fill="none" xmlns="http://www.w3.org/2000/svg">
<g clip-path="url(#clip0_166_129)">
<path d="M-310.456 846.368C-192.606 735.925 -136.452 812.736 -18.6025 702.293C99.2474 591.849 43.0936 515.038 160.91 404.626C278.726 294.214 334.913 370.994 452.763 260.551C570.613 150.107 514.459 73.2958 632.309 -37.1476C750.159 -147.591 806.313 -70.7795 924.197 -181.255C1042.08 -291.73 985.893 -368.51 1103.74 -478.953" stroke="#F4F4F4" stroke-width="5" stroke-miterlimit="10"/>
<path d="M-85.7266 1153.77C32.1233 1043.33 88.2771 1120.14 206.127 1009.69C323.977 899.252 267.823 822.44 385.639 712.028C503.455 601.617 559.643 678.396 677.493 567.953C795.343 457.51 739.189 380.698 857.039 270.255C974.888 159.811 1031.04 236.623 1148.93 126.148C1266.81 15.6723 1210.62 -61.1075 1328.47 -171.551" stroke="#F4F4F4" stroke-width="5" stroke-miterlimit="10"/>
<path d="M-198.148 999.991C-80.2983 889.548 -24.0304 966.515 93.8195 856.072C211.669 745.629 155.401 668.661 273.217 558.249C391.033 447.837 447.335 524.773 565.185 414.33C683.035 303.887 626.767 226.919 744.617 116.475C862.467 6.032 918.735 82.9997 1036.62 -27.4755C1154.5 -137.951 1098.2 -214.887 1216.05 -325.33" stroke="#F4F4F4" stroke-width="5" stroke-miterlimit="10"/>
<path d="M-254.303 923.18C-136.453 812.736 -80.2991 889.548 37.5508 779.104C155.401 668.661 99.247 591.849 217.063 481.438C334.879 371.026 391.067 447.806 508.917 337.362C626.766 226.919 570.613 150.107 688.462 39.6639C806.312 -70.7795 862.466 6.03194 980.35 -104.443C1098.23 -214.919 1042.05 -291.698 1159.9 -402.142" stroke="#F4F4F4" stroke-width="5" stroke-miterlimit="10"/>
<path d="M-141.88 1076.96C-24.0305 966.515 32.1233 1043.33 149.973 932.883C267.823 822.44 211.669 745.628 329.485 635.217C447.301 524.805 503.489 601.585 621.339 491.141C739.189 380.698 683.035 303.886 800.885 193.443C918.735 82.9996 974.888 159.811 1092.77 49.3359C1210.66 -61.1393 1154.47 -137.919 1272.32 -248.363" stroke="#F4F4F4" stroke-width="5" stroke-miterlimit="10"/>
<path d="M-282.379 884.774C-164.529 774.33 -108.375 851.142 9.47439 740.698C127.324 630.255 71.1705 553.443 188.986 443.032C306.802 332.62 362.99 409.4 480.84 298.956C598.69 188.513 542.536 111.701 660.386 1.258C778.236 -109.185 834.39 -32.3739 952.273 -142.849C1070.16 -253.324 1013.97 -330.104 1131.82 -440.548" stroke="#F4F4F4" stroke-width="5" stroke-miterlimit="10"/>
<path d="M-57.6501 1192.18C60.1997 1081.73 116.354 1158.54 234.203 1048.1C352.053 937.657 295.9 860.846 413.715 750.434C531.531 640.022 587.719 716.802 705.569 606.359C823.419 495.915 767.265 419.104 885.115 308.66C1002.96 198.217 1059.12 275.029 1177 164.553C1294.89 54.0781 1238.7 -22.7017 1356.55 -133.145" stroke="#F4F4F4" stroke-width="5" stroke-miterlimit="10"/>
<path d="M-169.957 1038.55C-52.1074 928.109 4.04638 1004.92 121.896 894.478C239.746 784.034 183.592 707.222 301.408 596.811C419.224 486.399 475.412 563.179 593.262 452.736C711.112 342.292 654.958 265.481 772.808 155.037C890.658 44.5937 946.812 121.405 1064.7 10.9301C1182.58 -99.5452 1126.39 -176.325 1244.24 -286.768" stroke="#F4F4F4" stroke-width="5" stroke-miterlimit="10"/>
<path d="M-226.225 961.585C-108.375 851.142 -52.1075 928.11 65.7423 817.666C183.592 707.223 127.324 630.255 245.14 519.843C362.956 409.432 419.258 486.368 537.108 375.924C654.958 265.481 598.69 188.513 716.54 78.0696C834.39 -32.3738 890.658 44.5938 1008.54 -65.8814C1126.43 -176.357 1070.12 -253.293 1187.97 -363.736" stroke="#F4F4F4" stroke-width="5" stroke-miterlimit="10"/>
<path d="M-113.804 1115.36C4.04617 1004.92 60.1999 1081.73 178.05 971.289C295.9 860.846 239.746 784.034 357.562 673.623C475.378 563.211 531.566 639.991 649.415 529.547C767.265 419.104 711.112 342.292 828.961 231.849C946.811 121.405 1002.97 198.217 1120.85 87.7418C1238.73 -22.7334 1182.55 -99.5132 1300.39 -209.957" stroke="#F4F4F4" stroke-width="5" stroke-miterlimit="10"/>
</g>
<defs>
<clipPath id="clip0_166_129">
<rect width="742" height="609" fill="white"/>
</clipPath>
</defs>
</svg>
